<svg id="Group_6" data-name="Group 6" xmlns="http://www.w3.org/2000/svg" width="221.546" height="52.456" viewBox="0 0 221.546 52.456">
  <g id="github_2_" data-name="github (2)" transform="translate(0 0)">
    <g id="Group_4" data-name="Group 4">
      <path id="Path_9349" data-name="Path 9349" d="M48.348,1.512a26.9,26.9,0,0,0-8.5,52.41c1.344.249,1.838-.583,1.838-1.294,0-.641-.025-2.76-.037-5.006-7.482,1.626-9.06-3.173-9.06-3.173-1.223-3.109-2.986-3.935-2.986-3.935-2.44-1.669.183-1.635.183-1.635a5.653,5.653,0,0,1,4.123,2.772c2.4,4.111,6.291,2.922,7.825,2.235a5.731,5.731,0,0,1,1.708-3.6C37.467,39.61,31.187,37.3,31.187,27a10.408,10.408,0,0,1,2.771-7.219,9.664,9.664,0,0,1,.26-7.117s2.258-.722,7.4,2.758a25.5,25.5,0,0,1,13.469,0c5.133-3.479,7.388-2.757,7.388-2.757a9.653,9.653,0,0,1,.264,7.117A10.384,10.384,0,0,1,65.5,27c0,10.328-6.291,12.6-12.28,13.268a6.429,6.429,0,0,1,1.824,4.981c0,3.6-.03,6.494-.03,7.379,0,.714.484,1.554,1.847,1.289a26.895,26.895,0,0,0-8.516-52.4Z" transform="translate(-21.455 -1.512)" fill="#181616" fill-rule="evenodd"/>
      <path id="Path_9350" data-name="Path 9350" d="M37.15,62.331c-.06.134-.271.174-.461.082s-.3-.27-.241-.4.268-.175.463-.083.307.272.24.406Zm-.331-.245,1.42,1.461c-.128.118-.379.063-.55-.125s-.209-.439-.078-.559.375-.063.55.125.212.438.078.559Zm-.257-.276M39.3,65.094c-.164.115-.434.008-.6-.232s-.166-.525,0-.64.432-.011.6.226.166.531,0,.647Zm0,0,1.453,1.5c-.147.162-.461.119-.691-.1a.518.518,0,0,1-.153-.687c.15-.162.465-.117.7.1s.3.525.147.686Zm0,0,2.005.868c-.066.211-.368.307-.673.217s-.5-.339-.442-.551.368-.312.674-.216.5.335.44.55Zm0,0,2.2.161c.008.221-.25.406-.57.41s-.582-.172-.585-.391.253-.406.574-.411S44.957,67.4,44.957,67.621Zm0,0M47,67.273c.038.216-.183.439-.5.5s-.6-.076-.641-.291.188-.442.5-.5.6.075.643.295Zm0,0" transform="translate(-26.964 -23.72)" fill="#181616"/>
    </g>
  </g>
  <path id="Path_9351" data-name="Path 9351" d="M30.45,111.665H17.309a.614.614,0,0,0-.614.614V118.7a.614.614,0,0,0,.614.614h5.125V127.3a15.51,15.51,0,0,1-4.335.393c-3.753,0-9-1.371-9-12.905s5.463-13.055,10.591-13.055a20.786,20.786,0,0,1,7.568,1.158.622.622,0,0,0,.737-.6l1.465-6.208a.575.575,0,0,0-.236-.479c-.495-.354-3.509-2.039-11.124-2.039C9.328,93.562.328,97.293.328,115.239s10.3,20.617,18.987,20.617a21.373,21.373,0,0,0,11.551-3.073.528.528,0,0,0,.2-.467V112.277a.614.614,0,0,0-.614-.614Zm67.119-16.57h-7.4a.614.614,0,0,0-.612.618l0,14.3H78.024v-14.3a.614.614,0,0,0-.61-.618h-7.4a.614.614,0,0,0-.612.618v38.723a.616.616,0,0,0,.612.618h7.4a.614.614,0,0,0,.61-.619V117.872H89.559l-.02,16.563a.617.617,0,0,0,.614.619h7.415a.614.614,0,0,0,.61-.619V95.711a.611.611,0,0,0-.61-.617Zm-57.926.881a4.819,4.819,0,1,0,4.771,4.818A4.792,4.792,0,0,0,39.643,95.975Zm3.63,11.8H35.9a.7.7,0,0,0-.641.688v25.609c0,.753.469.976,1.076.976h6.644c.731,0,.909-.359.909-.989V108.393a.614.614,0,0,0-.612-.617Zm83.029.058h-7.344a.614.614,0,0,0-.609.619v18.987a8.308,8.308,0,0,1-4.513,1.363c-2.647,0-3.349-1.2-3.349-3.792V108.452a.614.614,0,0,0-.61-.619h-7.452a.617.617,0,0,0-.612.619v17.81c0,7.7,4.292,9.584,10.2,9.584a17.2,17.2,0,0,0,8.749-2.677,14.963,14.963,0,0,0,.27,1.578.649.649,0,0,0,.54.335l4.741-.021a.617.617,0,0,0,.614-.619l0-25.995a.619.619,0,0,0-.614-.617Zm20.07-.87a13.81,13.81,0,0,0-7.008,1.861V95.711a.614.614,0,0,0-.61-.618h-7.419a.614.614,0,0,0-.614.618v38.723a.614.614,0,0,0,.614.618h5.148a.609.609,0,0,0,.537-.329,12.26,12.26,0,0,0,.312-1.786s3.033,2.874,8.779,2.874c6.742,0,10.611-3.419,10.611-15.354s-6.177-13.495-10.351-13.495Zm-2.9,21.817a8.8,8.8,0,0,1-4.274-1.233V115.284A9.82,9.82,0,0,1,143,114.051c2.644-.237,5.193.562,5.193,6.87,0,6.653-1.148,7.966-4.712,7.858Zm-78.218-.145c-.323,0-1.151.131-2,.131-2.726,0-3.651-1.267-3.651-2.908V114.97h5.551a.614.614,0,0,0,.614-.619v-5.964a.614.614,0,0,0-.614-.617H59.6l-.009-7.332c0-.279-.142-.418-.464-.418H51.564c-.292,0-.451.13-.451.411v7.578s-3.791.915-4.047.989a.614.614,0,0,0-.442.59v4.761a.614.614,0,0,0,.61.618h3.878v11.456c0,8.511,5.969,9.346,10,9.346a16.859,16.859,0,0,0,4.4-.725.573.573,0,0,0,.348-.556l0-5.238a.626.626,0,0,0-.614-.617Z" transform="translate(64.824 -89.25)" fill="#100e0f"/>
</svg>
