<svg xmlns="http://www.w3.org/2000/svg" width="48" height="48" viewBox="0 0 48 48">
  <g id="vuesax_broken_scroll" data-name="vuesax/broken/scroll" transform="translate(-108 -316)">
    <g id="scroll" transform="translate(108 316)">
      <path id="Vector" d="M0,21.94V26C0,36,4,40,14,40H26c10,0,14-4,14-14V14C40,4,36,0,26,0H14C4,0,0,4,0,14" transform="translate(4 4)" fill="none" stroke="#2f93d7" stroke-linecap="round" stroke-linejoin="round" stroke-width="3"/>
      <path id="Vector-2" data-name="Vector" d="M5.415,0,.435,4.98a1.533,1.533,0,0,0,0,2.14l4.98,4.98" transform="translate(13.785 17.94)" fill="none" stroke="#2f93d7" stroke-linecap="round" stroke-linejoin="round" stroke-width="3"/>
      <path id="Vector-3" data-name="Vector" d="M0,0,4.98,4.98a1.533,1.533,0,0,1,0,2.14L0,12.1" transform="translate(28.8 17.94)" fill="none" stroke="#2f93d7" stroke-linecap="round" stroke-linejoin="round" stroke-width="3"/>
      <path id="Vector-4" data-name="Vector" d="M0,0H48V48H0Z" fill="none" opacity="0"/>
    </g>
  </g>
</svg>
