<svg xmlns="http://www.w3.org/2000/svg" width="222.813" height="43.124" viewBox="0 0 222.813 43.124">
  <path id="facebook" d="M14.615,42.96h-8.4V22.03H.5V15.216H6.219V10.367C6.219,4.621,8.749.5,17.122.5c1.771,0,4.551.357,4.551.357V7.184h-2.92c-2.975,0-4.137.905-4.137,3.407v4.624h6.946l-.619,6.814H14.615ZM33.88,14.671c-.122,0-.248,0-.373.008-7.785,0-11.347,5.856-11.347,14.169,0,10.472,4.62,14.663,11.408,14.663,3.883,0,6.435-1.635,7.986-4.685v4.137h7.986V15.219H41.553v4.267A8.184,8.184,0,0,0,33.88,14.671Zm2.031,6.556c3.27,0,5.232,2.281,5.232,6.16l.008,3.962c0,2.615-1.621,5.674-5.24,5.674-5.564,0-5.415-6.007-5.415-8.008,0-6.731,2.964-7.788,5.415-7.788Zm16.854,7.865c0-3.371-.161-14.4,14.211-14.4,5.769,0,8.178,1.834,8.178,1.834l-1.936,6.005A12.638,12.638,0,0,0,67.676,21.2c-4.015,0-6.577,2.328-6.577,6.423l0,2.937c0,3.935,2.472,6.562,6.581,6.562a13.763,13.763,0,0,0,5.488-1.337l1.931,5.88s-2.2,1.846-8.089,1.846c-13.685,0-14.251-9.9-14.251-14.423Zm69.212-14.413c7.785,0,11.4,5.856,11.4,14.169,0,10.472-4.62,14.663-11.408,14.663-3.883,0-6.754-1.634-8.3-4.685v4.137l-7.885,0V1.344l8.372-.73v18.5c1.208-3.236,5.179-4.431,7.823-4.431Zm-2.347,6.548c-3.27,0-5.476,2.281-5.476,6.16l-.008,3.962c0,2.615,1.528,5.674,5.483,5.674,5.564,0,5.415-6.007,5.415-8.008,0-6.731-2.964-7.788-5.415-7.788ZM89.68,14.7c-8.83,0-13.492,4.814-13.492,13.37v1.59c0,11.1,6.546,13.963,14.351,13.963,7.586,0,11.02-2.122,11.02-2.122l-1.567-5.651a24.428,24.428,0,0,1-8.45,1.719c-4.572,0-6.538-1.165-7.042-5.559h17.728V27.478C102.228,18.2,97,14.7,89.679,14.7Zm.213,5.658c3.057,0,5.037,1.874,4.928,6.221H84.516c.179-4.575,2.315-6.221,5.377-6.221Zm60.181-5.7c-9.068,0-13.842,5.11-13.842,14.267,0,12.564,8.229,14.587,13.857,14.587,8.239,0,13.72-4.436,13.72-14.473,0-10.447-6.163-14.381-13.735-14.381Zm-.114,6.586c3.987,0,5.567,2.984,5.567,6.381v2.92c0,4.115-2.211,6.5-5.582,6.5-3.153,0-5.369-2.226-5.369-6.5v-2.92C144.574,23.078,147.211,21.25,149.959,21.25Zm30.528-6.586c-9.068,0-13.842,5.11-13.842,14.267,0,12.564,8.229,14.587,13.857,14.587,8.239,0,13.72-4.436,13.72-14.473,0-10.447-6.163-14.381-13.735-14.381Zm-.114,6.586c3.987,0,5.567,2.984,5.567,6.381v2.92c0,4.115-2.211,6.5-5.582,6.5-3.153,0-5.369-2.226-5.369-6.5v-2.92C174.988,23.078,177.625,21.25,180.372,21.25Zm17.013,21.71V1.344l8.4-.73V28.507l8.33-13.291h8.867l-8.69,13.766,9.024,13.978h-8.892l-8.64-13.572V42.96Z" transform="translate(-0.5 -0.5)" fill="#1877f2"/>
</svg>
