<svg id="linkedin" xmlns="http://www.w3.org/2000/svg" width="221.013" height="58.541" viewBox="0 0 221.013 58.541">
  <path id="Path_9345" data-name="Path 9345" d="M213.882,5.977a4.249,4.249,0,0,1,4.3-4.194h49.573a4.248,4.248,0,0,1,4.3,4.194V56.131a4.247,4.247,0,0,1-4.3,4.193H218.182a4.247,4.247,0,0,1-4.3-4.192V5.976Z" transform="translate(-51.041 -1.783)" fill="#069"/>
  <path id="Path_9346" data-name="Path 9346" d="M1.785,53.8H26.062V45.831H10.572V15.423H1.785Zm36.568,0V27.368H29.567V53.8ZM33.96,23.759c3.063,0,4.971-2.03,4.971-4.568a4.565,4.565,0,0,0-4.912-4.566c-3.006,0-4.971,1.973-4.971,4.566A4.549,4.549,0,0,0,33.9,23.759h.058ZM42.432,53.8h8.786V39.039a6,6,0,0,1,.289-2.143,4.808,4.808,0,0,1,4.508-3.214c3.18,0,4.452,2.425,4.452,5.976V53.8h8.785V38.645c0-8.12-4.335-11.9-10.116-11.9A8.752,8.752,0,0,0,51.159,31.2h.059V27.368H42.432C42.548,29.848,42.432,53.8,42.432,53.8ZM81.648,15.423H72.862V53.8h8.786V45.231l2.2-2.765L90.723,53.8h10.809L89.972,37.392l10.115-11.163H89.51S82.284,36.216,81.648,37.4Z" transform="translate(-1.785 -4.765)"/>
  <path id="Path_9347" data-name="Path 9347" d="M154.263,43.016a21.422,21.422,0,0,0,.289-3.453c0-6.833-3.469-13.771-12.6-13.771-9.769,0-14.278,7.726-14.278,14.733,0,8.667,5.492,14.079,15.087,14.079a27.318,27.318,0,0,0,10.232-1.747l-1.156-5.8a23.914,23.914,0,0,1-7.8,1.18c-4.1,0-7.687-1.685-7.976-5.275l18.208.055v0ZM136,37.072c.231-2.256,1.735-5.584,5.492-5.584,3.988,0,4.914,3.553,4.914,5.584H136ZM176.24,15.665V28.95h-.116c-1.272-1.86-3.931-3.1-7.455-3.1-6.764,0-12.717,5.413-12.66,14.66,0,8.571,5.377,14.154,12.081,14.154a9.938,9.938,0,0,0,8.845-4.625h.173l.348,4h7.8c-.115-1.861-.232-5.075-.232-8.233V15.664h-8.786Zm0,26.142a9.756,9.756,0,0,1-.174,1.916,5.17,5.17,0,0,1-5.143,4.116c-3.641,0-6.012-2.931-6.012-7.555,0-4.341,2.025-7.837,6.07-7.837a5.193,5.193,0,0,1,5.144,4.171,7.315,7.315,0,0,1,.115,1.58v3.608Z" transform="translate(-31.021 -5.007)"/>
  <path id="Path_9348" data-name="Path 9348" d="M234.036,53.76V27.326h-8.786V53.76h8.787Zm-4.392-30.043c3.063,0,4.971-2.03,4.971-4.567a4.566,4.566,0,0,0-4.912-4.567c-3.007,0-4.971,1.973-4.971,4.567a4.548,4.548,0,0,0,4.855,4.567h.057ZM238.9,53.76h8.785V39a6.021,6.021,0,0,1,.289-2.144,4.809,4.809,0,0,1,4.508-3.214c3.179,0,4.451,2.424,4.451,5.978V53.76h8.786V38.6c0-8.119-4.334-11.9-10.115-11.9a8.753,8.753,0,0,0-7.977,4.453h.058V27.326H238.9c.114,2.48,0,26.434,0,26.434Z" transform="translate(-53.561 -4.756)" fill="#fff"/>
</svg>
