<svg id="Group_5" data-name="Group 5" xmlns="http://www.w3.org/2000/svg" width="218.934" height="57" viewBox="0 0 218.934 57">
  <path id="twitter" d="M63.2,8.079a27.013,27.013,0,0,1-7.465,2.046,12.884,12.884,0,0,0,5.7-7.161A25.891,25.891,0,0,1,53.216,6.1,12.955,12.955,0,0,0,30.8,14.959a13.34,13.34,0,0,0,.3,2.954A36.67,36.67,0,0,1,4.4,4.362,12.975,12.975,0,0,0,8.382,21.678a12.8,12.8,0,0,1-5.854-1.6v.142a13.015,13.015,0,0,0,10.38,12.73,12.932,12.932,0,0,1-3.4.427,11.454,11.454,0,0,1-2.453-.221,13.078,13.078,0,0,0,12.106,9.025A26.029,26.029,0,0,1,3.1,47.711,24.267,24.267,0,0,1,0,47.533a36.473,36.473,0,0,0,19.875,5.814c23.841,0,36.876-19.749,36.876-36.868,0-.573-.02-1.126-.047-1.675A25.848,25.848,0,0,0,63.2,8.079Z" transform="translate(0 0.873)" fill="#03a9f4"/>
  <text id="Twitter-2" data-name="Twitter" transform="translate(74.934 43)" fill="#100e0f" font-size="41" font-family="Poppins-SemiBold, Poppins" font-weight="600"><tspan x="0" y="0">Twitter</tspan></text>
</svg>
